Coordinates
version=1
nRows=13
nColumns=63
inDegrees=yes

Units are S.I. units (second, meters, Newtons, ...)
If the header above contains a line with 'inDegrees', this indicates whether rotational values are in degrees (yes) or radians (no).

endheader
time	pelvis_tilt	pelvis_list	pelvis_rotation	pelvis_tx	pelvis_ty	pelvis_tz	hip_flexion_r	hip_adduction_r	hip_rotation_r	knee_angle_r	knee_angle_r_beta	ankle_angle_r	subtalar_angle_r	mtp_angle_r	hip_flexion_l	hip_adduction_l	hip_rotation_l	knee_angle_l	knee_angle_l_beta	ankle_angle_l	subtalar_angle_l	mtp_angle_l	L5_S1_Flex_Ext	L5_S1_Lat_Bending	L5_S1_axial_rotation	L4_L5_Flex_Ext	L4_L5_Lat_Bending	L4_L5_axial_rotation	L3_L4_Flex_Ext	L3_L4_Lat_Bending	L3_L4_axial_rotation	L2_L3_Flex_Ext	L2_L3_Lat_Bending	L2_L3_axial_rotation	L1_L2_Flex_Ext	L1_L2_Lat_Bending	L1_L2_axial_rotation	L1_T12_Flex_Ext	L1_T12_Lat_Bending	L1_T12_axial_rotation	Abs_r3	Abs_r2	Abs_r1	Abs_t1	Abs_t2	neck_flexion	neck_bending	neck_rotation	arm_flex_r	arm_add_r	arm_rot_r	elbow_flex_r	pro_sup_r	wrist_flex_r	wrist_dev_r	arm_flex_l	arm_add_l	arm_rot_l	elbow_flex_l	pro_sup_l	wrist_flex_l	wrist_dev_l
3.433962	-3.543711	-0.934780	92.752164	0.157434	0.884140	0.639616	5.613088	-5.551884	-5.937808	11.679217	0.203841	27.542901	13.687992	0.000000	7.661591	2.560581	-13.996288	14.905048	0.260142	28.595758	11.817777	0.000000	-0.103443	-0.315989	-0.079891	-0.192105	-0.420266	-0.084884	-0.169947	-0.768296	-0.084884	-0.118225	-0.768296	-0.069904	-0.096057	-0.644365	-0.064911	-0.059108	-0.489467	-0.059918	-0.738885	-3.574533	-0.444328	0.000000	0.000000	14.894618	3.699311	11.009290	8.000202	-20.877205	39.863064	59.991310	79.626603	-6.110075	11.048236	-6.438570	-23.847861	15.431894	73.946364	89.197270	-8.048701	6.027678
3.452830	-3.462173	-0.945687	92.944731	0.156895	0.884513	0.638955	5.527974	-5.475420	-6.016051	11.639215	0.203143	27.396253	13.412261	0.000000	7.610732	2.518958	-13.816128	14.826618	0.258773	28.406215	11.847624	0.000000	-0.096556	-0.305559	-0.151045	-0.179315	-0.406394	-0.160485	-0.158633	-0.742936	-0.160485	-0.110354	-0.742936	-0.132164	-0.089662	-0.623096	-0.122724	-0.055172	-0.473311	-0.113284	-0.689693	-3.456546	-0.840067	0.000000	0.000000	14.993530	3.587792	11.452152	9.500760	-20.648275	44.046400	59.648474	78.578923	-6.104701	10.698964	-5.720862	-23.632620	17.798387	74.177260	89.217324	-8.174116	5.515983
3.471698	-3.343284	-0.959590	93.131686	0.156238	0.884837	0.638311	5.462736	-5.369823	-6.141030	11.621851	0.202840	27.272565	13.192309	0.000000	7.573493	2.445905	-13.623637	14.769225	0.257772	28.233778	11.813914	0.000000	-0.089510	-0.289844	-0.223003	-0.166229	-0.385493	-0.236940	-0.147056	-0.704728	-0.236940	-0.102301	-0.704728	-0.195127	-0.083119	-0.591051	-0.181190	-0.051146	-0.448969	-0.167252	-0.639360	-3.278778	-1.240273	0.000000	0.000000	15.062815	3.478303	11.924004	11.030542	-20.375322	48.228819	59.332812	77.847777	-6.116275	10.115965	-4.821935	-23.246708	20.209248	74.257289	89.036211	-7.965198	5.156476
3.490566	-3.200872	-0.984918	93.289938	0.155510	0.885070	0.637683	5.432409	-5.247348	-6.289102	11.630635	0.202993	27.183131	13.027795	0.000000	7.552193	2.352391	-13.452886	14.724871	0.256997	28.079886	11.734440	0.000000	-0.081583	-0.271160	-0.290897	-0.151507	-0.360642	-0.309078	-0.134032	-0.659298	-0.309078	-0.093241	-0.659298	-0.254535	-0.075758	-0.552949	-0.236354	-0.046616	-0.420026	-0.218173	-0.582736	-3.067413	-1.617883	0.000000	0.000000	15.133529	3.394785	12.391036	12.531859	-20.046768	52.197527	59.096868	77.902031	-6.141608	9.271394	-3.771883	-22.724187	22.672168	74.200139	88.661145	-7.424538	4.857028
3.509434	-3.043069	-1.023888	93.415072	0.154743	0.885192	0.637087	5.440062	-5.113692	-6.449042	11.662405	0.203547	27.121936	12.907350	0.000000	7.553555	2.245358	-13.297452	14.701954	0.256597	27.938841	11.591703	0.000000	-0.072784	-0.251181	-0.353187	-0.135168	-0.334071	-0.375261	-0.119577	-0.610723	-0.375261	-0.083185	-0.610723	-0.309039	-0.067587	-0.512209	-0.286965	-0.041589	-0.389080	-0.264890	-0.519891	-2.841415	-1.964321	0.000000	0.000000	15.227487	3.346761	12.804795	13.942566	-19.680557	55.679890	58.932769	79.655709	-5.925414	8.183344	-2.614847	-22.089517	25.138845	74.034873	88.134144	-6.588840	4.577112
3.528302	-2.863424	-1.086848	93.503999	0.153938	0.885178	0.636504	5.491213	-4.961643	-6.617022	11.704149	0.204276	27.079759	12.838781	0.000000	7.585945	2.118657	-13.154459	14.695722	0.256489	27.819989	11.392795	0.000000	-0.061462	-0.228907	-0.405823	-0.114141	-0.304446	-0.431187	-0.100976	-0.556564	-0.431187	-0.070245	-0.556564	-0.355095	-0.057073	-0.466787	-0.329731	-0.035119	-0.354577	-0.304367	-0.439016	-2.589439	-2.257066	0.000000	0.000000	15.355929	3.319772	13.142432	15.190236	-19.312712	58.647407	58.859500	81.848410	-5.429017	6.985369	-1.388110	-21.364113	27.570887	73.799735	87.549791	-5.519089	4.312326
3.547170	-2.674653	-1.171005	93.555431	0.153117	0.885036	0.635976	5.583732	-4.802676	-6.776902	11.751002	0.205094	27.054685	12.810910	0.000000	7.652800	1.983303	-13.031969	14.711421	0.256763	27.716486	11.144838	0.000000	-0.048318	-0.206282	-0.446603	-0.089731	-0.274356	-0.474516	-0.079381	-0.501555	-0.474516	-0.055222	-0.501555	-0.390778	-0.044868	-0.420651	-0.362865	-0.027609	-0.319531	-0.334953	-0.345128	-2.333507	-2.483874	0.000000	0.000000	15.507750	3.317886	13.360931	16.255140	-18.972579	61.116030	58.938135	83.186301	-4.775653	5.829956	-0.092500	-20.575050	29.940369	73.513095	86.976867	-4.300947	4.138647
3.566038	-2.482145	-1.274574	93.559746	0.152313	0.884765	0.635489	5.713999	-4.640017	-6.913326	11.796695	0.205891	27.043922	12.819968	0.000000	7.747936	1.844489	-12.925860	14.740077	0.257263	27.632829	10.850496	0.000000	-0.033233	-0.184059	-0.470080	-0.061717	-0.244799	-0.499460	-0.054598	-0.447521	-0.499460	-0.037982	-0.447521	-0.411320	-0.030860	-0.375333	-0.381940	-0.018989	-0.285107	-0.352560	-0.237379	-2.082113	-2.614446	0.000000	0.000000	15.670305	3.318441	13.426773	17.077203	-18.674723	63.003029	59.249363	83.147658	-4.213104	4.808444	1.276960	-19.735773	32.238491	73.177651	86.433062	-3.001131	4.123354
3.584906	-2.297235	-1.382338	93.535879	0.151535	0.884408	0.635074	5.860516	-4.483051	-7.012665	11.831242	0.206494	27.051360	12.828901	0.000000	7.858952	1.712216	-12.827002	14.781407	0.257984	27.575140	10.541380	0.000000	-0.018919	-0.163980	-0.483923	-0.035135	-0.218093	-0.514168	-0.031082	-0.398701	-0.514168	-0.021623	-0.398701	-0.423433	-0.017568	-0.334388	-0.393188	-0.010810	-0.254005	-0.362942	-0.135138	-1.854974	-2.691436	0.000000	0.000000	15.825599	3.342997	13.358069	17.679692	-18.397477	64.302174	59.713397	81.781986	-3.682109	4.066441	2.686372	-18.844089	34.371569	72.843180	85.898757	-1.740212	4.567207
3.603774	-2.116837	-1.508689	93.487811	0.150811	0.883961	0.634717	6.035904	-4.330774	-7.113643	11.851941	0.206855	27.076047	12.882632	0.000000	8.001022	1.584004	-12.710609	14.829429	0.258822	27.552036	10.222316	0.000000	-0.002361	-0.145487	-0.483465	-0.004385	-0.193498	-0.513681	-0.003879	-0.353738	-0.513681	-0.002699	-0.353738	-0.423032	-0.002193	-0.296678	-0.392815	-0.001349	-0.225360	-0.362599	-0.016867	-1.645781	-2.688886	0.000000	0.000000	15.969895	3.374584	13.155705	18.045122	-18.125331	65.012957	60.301117	79.261310	-3.237894	3.758543	4.145915	-17.939287	36.368810	72.456393	85.306639	-0.442891	5.407272
3.622642	-1.959610	-1.634184	93.408187	0.150166	0.883491	0.634397	6.213961	-4.193203	-7.096588	11.851289	0.206844	27.116738	12.850380	0.000000	8.140632	1.475144	-12.630996	14.865368	0.259450	27.557045	9.941568	0.000000	0.013744	-0.130925	-0.468318	0.025524	-0.174130	-0.497587	0.022580	-0.318331	-0.497587	0.015708	-0.318331	-0.409778	0.012763	-0.266982	-0.380508	0.007853	-0.202803	-0.351238	0.098172	-1.481048	-2.604642	0.000000	0.000000	16.093555	3.405856	12.789869	18.222905	-17.862483	65.264433	60.935038	75.435410	-2.902397	3.749359	5.590385	-17.027409	38.181483	72.019608	84.813353	0.736430	6.596176
3.641509	-1.821084	-1.752326	93.347469	0.149571	0.883034	0.634119	6.376293	-4.073739	-7.076428	11.831569	0.206500	27.170608	12.813946	0.000000	8.279270	1.384756	-12.524699	14.898107	0.260021	27.568220	9.678526	0.000000	0.028628	-0.119586	-0.451609	0.053165	-0.159049	-0.479834	0.047033	-0.290761	-0.479834	0.032719	-0.290761	-0.395158	0.026584	-0.243859	-0.366932	0.016358	-0.185238	-0.338707	0.204486	-1.352778	-2.511713	0.000000	0.000000	16.185832	3.456700	12.334480	18.302030	-17.583483	65.214941	61.487588	70.462338	-2.604199	4.231678	6.989081	-16.161049	39.811570	71.504141	84.293723	1.856313	8.001374
3.660377	-1.693973	-1.868417	93.286807	0.149051	0.882603	0.633872	6.525454	-3.962004	-7.024281	11.786729	0.205717	27.215324	12.769110	0.000000	8.420321	1.304002	-12.411862	14.929377	0.260567	27.570571	9.398228	0.000000	0.043230	-0.110157	-0.431686	0.080282	-0.146509	-0.458667	0.071022	-0.267836	-0.458667	0.049407	-0.267836	-0.377725	0.040143	-0.224633	-0.350745	0.024701	-0.170633	-0.323765	0.308786	-1.246120	-2.400909	0.000000	0.000000	16.279867	3.517466	11.833927	18.375987	-17.337738	65.139008	61.950704	64.462897	-2.514583	5.007786	8.318010	-15.379233	41.332896	70.900247	83.649855	2.791334	9.465307
